<?xml version="1.0" encoding="UTF-8" standalone="no"?>
<!DOCTYPE svg PUBLIC "-//W3C//DTD SVG 1.1//EN" "http://www.w3.org/Graphics/SVG/1.1/DTD/svg11.dtd">
<svg width="100%" height="100%" viewBox="0 0 139 136" version="1.1" xmlns="http://www.w3.org/2000/svg" xmlns:xlink="http://www.w3.org/1999/xlink" xml:space="preserve" xmlns:serif="http://www.serif.com/" style="fill-rule:evenodd;clip-rule:evenodd;stroke-linejoin:round;stroke-miterlimit:2;">
    <g transform="matrix(1,0,0,1,-12416.9,-3447.44)">
        <g transform="matrix(1,0,0,1.2306,12158,2595.9)">
            <g transform="matrix(1,0,0,3.52924,220.955,-901.493)">
                <g transform="matrix(1,0,0,1,0,-29.8782)">
                    <g transform="matrix(0.505578,0,0,0.11641,-3064.04,-56.0324)">
                        <circle cx="6147.06" cy="4750.34" r="11.546" style="fill:rgb(26,30,79);"/>
                    </g>
                    <g transform="matrix(0.505578,0,0,0.11641,-3032.25,-56.0324)">
                        <circle cx="6147.06" cy="4750.34" r="11.546" style="fill:rgb(26,30,79);"/>
                    </g>
                    <g transform="matrix(0.505578,0,0,0.11641,-3000.45,-56.0324)">
                        <circle cx="6147.06" cy="4750.34" r="11.546" style="fill:rgb(26,30,79);"/>
                    </g>
                    <g transform="matrix(0.505578,0,0,0.11641,-2968.65,-56.0324)">
                        <circle cx="6147.06" cy="4750.34" r="11.546" style="fill:rgb(26,30,79);"/>
                    </g>
                    <g transform="matrix(0.505578,0,0,0.11641,-2936.86,-56.0324)">
                        <circle cx="6147.06" cy="4750.34" r="11.546" style="fill:rgb(26,30,79);"/>
                    </g>
                </g>
                <g transform="matrix(1,0,0,1,0,-36.9921)">
                    <g transform="matrix(0.505578,0,0,0.11641,-3064.04,-56.0324)">
                        <circle cx="6147.06" cy="4750.34" r="11.546" style="fill:rgb(26,30,79);"/>
                    </g>
                    <g transform="matrix(0.505578,0,0,0.11641,-3032.25,-56.0324)">
                        <circle cx="6147.06" cy="4750.34" r="11.546" style="fill:rgb(26,30,79);"/>
                    </g>
                    <g transform="matrix(0.505578,0,0,0.11641,-3000.45,-56.0324)">
                        <circle cx="6147.06" cy="4750.34" r="11.546" style="fill:rgb(26,30,79);"/>
                    </g>
                    <g transform="matrix(0.505578,0,0,0.11641,-2968.65,-56.0324)">
                        <circle cx="6147.06" cy="4750.34" r="11.546" style="fill:rgb(26,30,79);"/>
                    </g>
                    <g transform="matrix(0.505578,0,0,0.11641,-2936.86,-56.0324)">
                        <circle cx="6147.06" cy="4750.34" r="11.546" style="fill:rgb(26,30,79);"/>
                    </g>
                </g>
                <g transform="matrix(1,0,0,1,0,-44.106)">
                    <g transform="matrix(0.505578,0,0,0.11641,-3032.25,-56.0324)">
                        <circle cx="6147.06" cy="4750.34" r="11.546" style="fill:rgb(26,30,79);"/>
                    </g>
                    <g transform="matrix(0.505578,0,0,0.11641,-3000.45,-56.0324)">
                        <circle cx="6147.06" cy="4750.34" r="11.546" style="fill:rgb(26,30,79);"/>
                    </g>
                    <g transform="matrix(0.505578,0,0,0.11641,-2968.65,-56.0324)">
                        <circle cx="6147.06" cy="4750.34" r="11.546" style="fill:rgb(26,30,79);"/>
                    </g>
                </g>
                <g transform="matrix(1,0,0,1,0,-22.7643)">
                    <g transform="matrix(0.505578,0,0,0.11641,-3064.04,-56.0324)">
                        <circle cx="6147.06" cy="4750.34" r="11.546" style="fill:rgb(26,30,79);"/>
                    </g>
                    <g transform="matrix(0.505578,0,0,0.11641,-3032.25,-56.0324)">
                        <circle cx="6147.06" cy="4750.34" r="11.546" style="fill:rgb(26,30,79);"/>
                    </g>
                    <g transform="matrix(0.505578,0,0,0.11641,-3000.45,-56.0324)">
                        <circle cx="6147.06" cy="4750.34" r="11.546" style="fill:rgb(26,30,79);"/>
                    </g>
                    <g transform="matrix(0.505578,0,0,0.11641,-2968.65,-56.0324)">
                        <circle cx="6147.06" cy="4750.34" r="11.546" style="fill:rgb(26,30,79);"/>
                    </g>
                    <g transform="matrix(0.505578,0,0,0.11641,-2936.86,-56.0324)">
                        <circle cx="6147.06" cy="4750.34" r="11.546" style="fill:rgb(26,30,79);"/>
                    </g>
                </g>
                <g transform="matrix(1,0,0,1,0,-15.6504)">
                    <g transform="matrix(0.505578,0,0,0.11641,-3032.25,-56.0324)">
                        <circle cx="6147.06" cy="4750.34" r="11.546" style="fill:rgb(26,30,79);"/>
                    </g>
                    <g transform="matrix(0.505578,0,0,0.11641,-3000.45,-56.0324)">
                        <circle cx="6147.06" cy="4750.34" r="11.546" style="fill:rgb(26,30,79);"/>
                    </g>
                    <g transform="matrix(0.505578,0,0,0.11641,-2968.65,-56.0324)">
                        <circle cx="6147.06" cy="4750.34" r="11.546" style="fill:rgb(26,30,79);"/>
                    </g>
                </g>
            </g>
        </g>
    </g>
</svg>
