<?xml version="1.0" encoding="UTF-8" standalone="no"?>
<!DOCTYPE svg PUBLIC "-//W3C//DTD SVG 1.1//EN" "http://www.w3.org/Graphics/SVG/1.1/DTD/svg11.dtd">
<svg width="100%" height="100%" viewBox="0 0 343 343" version="1.1" xmlns="http://www.w3.org/2000/svg" xmlns:xlink="http://www.w3.org/1999/xlink" xml:space="preserve" xmlns:serif="http://www.serif.com/" style="fill-rule:evenodd;clip-rule:evenodd;stroke-linejoin:round;stroke-miterlimit:2;">
    <g transform="matrix(1,0,0,1,-789.284,-382.586)">
        <g>
            <g transform="matrix(0.979573,0,0,0.979573,-20.6387,102.289)">
                <circle cx="1001.54" cy="460.868" r="174.725" style="fill:rgb(13,60,93);"/>
            </g>
            <g transform="matrix(1,0,0,1,13.3806,29.3009)">
                <path d="M1022.93,371.275L1024.02,371.817L1028.15,373.987L1029.8,374.909L1033.37,376.935L1036.33,378.738L1038.45,380.057L1041.72,382.2L1044.28,383.953L1047.12,385.947L1048.05,386.647L1051.87,389.539L1054.41,391.576L1057.41,394.066L1059.66,395.99L1064.24,400.173L1066.14,402.02L1069.33,405.22L1071.12,407.074L1075.49,411.873L1076.8,413.415L1080.08,417.364L1081.53,419.183L1085.58,424.558L1086.3,425.594L1089.61,430.434L1090.78,432.236L1094.17,437.732L1094.49,438.251L1097.88,444.363L1098.81,446.148L1101.5,451.588L1101.99,452.618L1104.82,459.083L1105.52,460.827L1107.62,466.347L1108.14,467.749L1110.35,474.519L1110.84,476.173L1112.4,481.87L1112.84,483.557L1114.41,490.598L1114.69,492.067L1115.73,498.052L1116.02,499.958L1116.87,506.919L1100.79,506.919C1094.81,506.919 1089.55,510.878 1087.88,516.628C1083.27,532.64 1073.6,566.282 1063.83,600.983C1052.03,642.934 1017.99,641.961 1017.99,641.961C1017.99,641.961 1003.41,625.478 1002.71,564.96C1002.02,504.442 963.995,544.726 951.405,493.329C938.816,441.933 955.485,437.766 977.016,436.377C998.546,434.988 1036.05,446.795 1036.05,446.795C1036.05,446.795 1059.67,459.297 1070.08,451.657C1080.5,444.017 1085.36,439.155 1072.86,428.042C1060.36,416.93 1026.33,407.206 1028.41,419.708C1030.5,432.21 1004.8,424.57 1001.33,409.984C997.852,395.399 970.765,411.373 966.598,419.708C962.43,428.042 945.067,414.846 960.347,400.261C975.627,385.675 985.35,393.315 989.517,383.592C993.685,373.868 992.99,380.119 1012.44,371.784L1018.75,369.251L1022.93,371.275Z" style="fill:rgb(67,164,72);"/>
            </g>
            <g transform="matrix(1,0,0,1,0,54.261)">
                <path d="M960,328.325C975.937,345.604 948.404,356.626 931.041,360.967C913.677,365.308 928.87,396.779 907.166,405.461C885.461,414.143 873.524,390.268 846.984,414.143C820.444,438.018 830.115,436.932 846.984,466.233C863.853,495.534 901.74,462.978 910.421,485.767C919.103,508.557 936.467,537.858 890.887,568.244C846.256,597.999 855.795,633.75 856.218,635.239C841.12,623.732 841.2,621.968 839.705,620.351C832.271,593.259 827.743,555.626 817.232,529.336C813.435,519.879 811.141,509.886 810.431,499.72C808.916,477.476 805.277,457.355 799.911,438.948C824.352,374.317 886.848,328.325 960,328.325Z" style="fill:rgb(67,164,72);"/>
            </g>
        </g>
    </g>
</svg>
