<?xml version="1.0" encoding="UTF-8" standalone="no"?>
<!DOCTYPE svg PUBLIC "-//W3C//DTD SVG 1.1//EN" "http://www.w3.org/Graphics/SVG/1.1/DTD/svg11.dtd">
<svg width="100%" height="100%" viewBox="0 0 840 950" version="1.1" xmlns="http://www.w3.org/2000/svg" xmlns:xlink="http://www.w3.org/1999/xlink" xml:space="preserve" xmlns:serif="http://www.serif.com/" style="fill-rule:evenodd;clip-rule:evenodd;stroke-linecap:round;stroke-linejoin:round;stroke-miterlimit:1.5;">
    <g transform="matrix(1,0,0,1,-12710.9,-5849.4)">
        <g transform="matrix(1,0,0,1.2306,12158,5728.13)">
            <g transform="matrix(1.66902,0,0,1.66438,-647.827,-358.766)">
                <g transform="matrix(1,0,0,1,15.8207,-23.4103)">
                    <g transform="matrix(0.900736,0,0,0.731948,-10790.5,-2806.35)">
                        <circle cx="13031.9" cy="4603.82" r="245.602" style="fill:rgb(26,30,79);"/>
                        <path d="M13031.9,4332.65C12882.2,4332.65 12760.8,4454.18 12760.8,4603.82C12760.8,4753.46 12882.2,4874.99 13031.9,4874.99C13181.5,4874.99 13303,4753.46 13303,4603.82C13303,4454.18 13181.5,4332.65 13031.9,4332.65ZM13031.9,4358.22C13167.4,4358.22 13277.5,4468.27 13277.5,4603.82C13277.5,4739.37 13167.4,4849.42 13031.9,4849.42C12896.3,4849.42 12786.3,4739.37 12786.3,4603.82C12786.3,4468.27 12896.3,4358.22 13031.9,4358.22Z" style="fill:white;"/>
                    </g>
                    <g transform="matrix(1.00445,0,0,0.816225,-12141.6,-3203.44)">
                        <path d="M13074.5,4831.03C13060.4,4833.87 13045.9,4835.35 13031,4835.35C12909.4,4835.35 12810.6,4736.6 12810.6,4614.97C12810.6,4493.33 12909.4,4394.58 13031,4394.58C13045.9,4394.58 13060.4,4396.06 13074.5,4398.9C12973.7,4419.08 12897.6,4508.21 12897.6,4614.97C12897.6,4721.72 12973.7,4810.85 13074.5,4831.03Z" style="fill:white;stroke:white;stroke-width:1px;"/>
                    </g>
                </g>
                <g transform="matrix(1,0,0,1,75.4587,105.182)">
                    <g transform="matrix(1.42126,0,0,0.876154,-17645.8,-3663.76)">
                        <path d="M13093.4,4398.34C13093.4,4397.34 13093.1,4396.39 13092.5,4395.68C13092,4394.98 13091.3,4394.58 13090.5,4394.58C13087,4394.58 13080.9,4394.58 13077.3,4394.58C13076.6,4394.58 13075.9,4394.98 13075.3,4395.68C13074.8,4396.39 13074.5,4397.34 13074.5,4398.34C13074.5,4427.73 13074.5,4620.05 13074.5,4649.43C13074.5,4650.43 13074.8,4651.39 13075.3,4652.09C13075.9,4652.8 13076.6,4653.2 13077.3,4653.2C13080.9,4653.2 13087,4653.2 13090.5,4653.2C13091.3,4653.2 13092,4652.8 13092.5,4652.09C13093.1,4651.39 13093.4,4650.43 13093.4,4649.43C13093.4,4620.05 13093.4,4427.73 13093.4,4398.34Z" style="fill:rgb(26,30,79);stroke:rgb(26,30,79);stroke-width:33.07px;"/>
                    </g>
                    <g transform="matrix(8.70269e-17,1.15493,-1.0733,5.34053e-17,5847.5,-14968.6)">
                        <path d="M13193,4404.7C13193.6,4403.41 13194.7,4402.64 13195.9,4402.64C13197.1,4402.64 13198.2,4403.41 13198.8,4404.7C13209.1,4425.38 13244.2,4495.43 13255.5,4518.07C13256.2,4519.48 13256.3,4521.29 13255.6,4522.78C13255,4524.27 13253.9,4525.19 13252.6,4525.19C13230.9,4525.19 13160.9,4525.19 13139.2,4525.19C13137.9,4525.19 13136.8,4524.27 13136.2,4522.78C13135.5,4521.29 13135.6,4519.48 13136.3,4518.07C13147.6,4495.43 13182.7,4425.38 13193,4404.7Z" style="fill:rgb(0,0,35);stroke:rgb(26,30,79);stroke-width:33.13px;"/>
                    </g>
                    <g transform="matrix(1.42126,0,0,0.876154,-17645.8,-3663.76)">
                        <path d="M13093.4,4398.34C13093.4,4397.34 13093.1,4396.39 13092.5,4395.68C13092,4394.98 13091.3,4394.58 13090.5,4394.58C13087,4394.58 13080.9,4394.58 13077.3,4394.58C13076.6,4394.58 13075.9,4394.98 13075.3,4395.68C13074.8,4396.39 13074.5,4397.34 13074.5,4398.34C13074.5,4427.73 13074.5,4620.05 13074.5,4649.43C13074.5,4650.43 13074.8,4651.39 13075.3,4652.09C13075.9,4652.8 13076.6,4653.2 13077.3,4653.2C13080.9,4653.2 13087,4653.2 13090.5,4653.2C13091.3,4653.2 13092,4652.8 13092.5,4652.09C13093.1,4651.39 13093.4,4650.43 13093.4,4649.43C13093.4,4620.05 13093.4,4427.73 13093.4,4398.34Z" style="fill:white;stroke:rgb(0,0,35);stroke-width:1px;"/>
                    </g>
                    <g transform="matrix(8.70269e-17,1.15493,-1.0733,5.34053e-17,5847.5,-14968.6)">
                        <path d="M13193,4404.7C13193.6,4403.41 13194.7,4402.64 13195.9,4402.64C13197.1,4402.64 13198.2,4403.41 13198.8,4404.7C13209.1,4425.38 13244.2,4495.43 13255.5,4518.07C13256.2,4519.48 13256.3,4521.29 13255.6,4522.78C13255,4524.27 13253.9,4525.19 13252.6,4525.19C13230.9,4525.19 13160.9,4525.19 13139.2,4525.19C13137.9,4525.19 13136.8,4524.27 13136.2,4522.78C13135.5,4521.29 13135.6,4519.48 13136.3,4518.07C13147.6,4495.43 13182.7,4425.38 13193,4404.7Z" style="fill:url(#_Linear1);"/>
                    </g>
                </g>
            </g>
        </g>
    </g>
    <defs>
        <linearGradient id="_Linear1" x1="0" y1="0" x2="1" y2="0" gradientUnits="userSpaceOnUse" gradientTransform="matrix(126.297,0,0,126.297,13132.8,4462.04)"><stop offset="0" style="stop-color:rgb(145,253,159);stop-opacity:1"/><stop offset="1" style="stop-color:rgb(40,255,67);stop-opacity:1"/></linearGradient>
    </defs>
</svg>
